<?xml version="1.0" encoding="UTF-8" standalone="no"?>
<svg width="1024" height="1024" viewBox="0 0 1024 1024" fill="none" xmlns="http://www.w3.org/2000/svg">
  <defs>
    <linearGradient id="lAccent" x1="300" y1="220" x2="760" y2="760" gradientUnits="userSpaceOnUse">
      <stop offset="0" stop-color="#B8FFD9"/>
      <stop offset="1" stop-color="#7AD3FF"/>
    </linearGradient>
    <linearGradient id="traceAccent" x1="120" y1="120" x2="904" y2="904" gradientUnits="userSpaceOnUse">
      <stop offset="0" stop-color="#335E58"/>
      <stop offset="1" stop-color="#274A63"/>
    </linearGradient>
  </defs>

  <!-- app tile -->
  <rect x="96" y="96" width="832" height="832" rx="160" fill="#0E1420"/>
  <rect x="96" y="96" width="832" height="832" rx="160" stroke="#1E2A3D" stroke-width="10"/>

  <!-- connected board trace reaching edges -->
  <g stroke="url(#traceAccent)" stroke-width="34" stroke-linecap="round" stroke-linejoin="round">
    <path d="M96 316H350V714H740V928"/>
    <path d="M350 96V316"/>
    <path d="M740 714H928"/>
  </g>

  <!-- main L path, larger and brighter -->
  <g stroke="url(#lAccent)" stroke-width="72" stroke-linecap="round" stroke-linejoin="round">
    <path d="M350 316V714H740"/>
  </g>

  <!-- outer trace nodes -->
  <circle cx="96" cy="316" r="24" fill="#274A63"/>
  <circle cx="350" cy="96" r="24" fill="#2F5A5B"/>
  <circle cx="928" cy="714" r="24" fill="#274A63"/>
  <circle cx="740" cy="928" r="24" fill="#2F5A5B"/>

  <!-- L nodes -->
  <circle cx="350" cy="316" r="34" fill="#B8FFD9"/>
  <circle cx="350" cy="714" r="34" fill="#7AD3FF"/>
  <circle cx="740" cy="714" r="34" fill="#B8FFD9"/>

  <!-- subtle center pads -->
  <circle cx="350" cy="316" r="15" fill="#0E1420"/>
  <circle cx="350" cy="714" r="15" fill="#0E1420"/>
  <circle cx="740" cy="714" r="15" fill="#0E1420"/>
  <circle cx="96" cy="316" r="10" fill="#0E1420"/>
  <circle cx="350" cy="96" r="10" fill="#0E1420"/>
  <circle cx="928" cy="714" r="10" fill="#0E1420"/>
  <circle cx="740" cy="928" r="10" fill="#0E1420"/>
</svg>
